<svg width="18" height="13" viewBox="0 0 18 13" fill="none" xmlns="http://www.w3.org/2000/svg">
<path d="M6 10.2L2.5 6.70001C2.40847 6.60737 2.29947 6.53382 2.17931 6.48362C2.05915 6.43342 1.93022 6.40757 1.8 6.40757C1.66977 6.40757 1.54084 6.43342 1.42068 6.48362C1.30052 6.53382 1.19152 6.60737 1.1 6.70001C1.00736 6.79153 0.933804 6.90053 0.883605 7.02069C0.833405 7.14085 0.807556 7.26978 0.807556 7.40001C0.807556 7.53023 0.833405 7.65916 0.883605 7.77932C0.933804 7.89948 1.00736 8.00849 1.1 8.10001L5.29 12.29C5.68 12.68 6.31 12.68 6.7 12.29L17.3 1.70001C17.3926 1.60848 17.4662 1.49948 17.5164 1.37932C17.5666 1.25916 17.5924 1.13023 17.5924 1.00001C17.5924 0.869783 17.5666 0.740853 17.5164 0.620692C17.4662 0.500532 17.3926 0.391531 17.3 0.300008C17.2085 0.207368 17.0995 0.133816 16.9793 0.0836167C16.8592 0.0334172 16.7302 0.00756836 16.6 0.00756836C16.4698 0.00756836 16.3408 0.0334172 16.2207 0.0836167C16.1005 0.133816 15.9915 0.207368 15.9 0.300008L6 10.2Z" fill="#459B43"/>
</svg>
